<?xml version="1.0" encoding="UTF-8"?>
<svg width="700pt" height="700pt" version="1.1" viewBox="0 0 700 700" xmlns="http://www.w3.org/2000/svg" xmlns:xlink="http://www.w3.org/1999/xlink">
 <defs>
  <symbol id="v" overflow="visible">
   <path d="m13.406-0.79688c-0.69922 0.35547-1.4219 0.62109-2.1719 0.79688-0.74219 0.1875-1.5234 0.28125-2.3438 0.28125-2.4297 0-4.3516-0.67578-5.7656-2.0312-1.418-1.3633-2.125-3.207-2.125-5.5312 0-2.3203 0.70703-4.1602 2.125-5.5156 1.4141-1.3633 3.3359-2.0469 5.7656-2.0469 0.82031 0 1.6016 0.09375 2.3438 0.28125 0.75 0.17969 1.4727 0.44531 2.1719 0.79688v3.0156c-0.69922-0.46875-1.3867-0.8125-2.0625-1.0312-0.67969-0.22656-1.3906-0.34375-2.1406-0.34375-1.3438 0-2.4023 0.43359-3.1719 1.2969-0.76172 0.85547-1.1406 2.0391-1.1406 3.5469 0 1.5117 0.37891 2.6992 1.1406 3.5625 0.76953 0.85547 1.8281 1.2812 3.1719 1.2812 0.75 0 1.4609-0.10938 2.1406-0.32812 0.67578-0.22656 1.3633-0.57812 2.0625-1.0469z"/>
  </symbol>
  <symbol id="d" overflow="visible">
   <path d="m9.8125-7.9531c-0.3125-0.14453-0.62109-0.25-0.92188-0.3125-0.30469-0.070313-0.60547-0.10938-0.90625-0.10938-0.90625 0-1.6055 0.28906-2.0938 0.85938-0.48047 0.57422-0.71875 1.3984-0.71875 2.4688v5.0469h-3.4844v-10.938h3.4844v1.7969c0.44531-0.71875 0.96094-1.2383 1.5469-1.5625 0.58203-0.33203 1.2812-0.5 2.0938-0.5 0.125 0 0.25391 0.007813 0.39062 0.015625 0.13281 0.011719 0.33203 0.03125 0.59375 0.0625z"/>
  </symbol>
  <symbol id="c" overflow="visible">
   <path d="m12.594-5.5v1h-8.1719c0.082031 0.82422 0.37891 1.4375 0.89062 1.8438 0.50781 0.40625 1.2188 0.60938 2.125 0.60938 0.73828 0 1.4922-0.10938 2.2656-0.32812 0.76953-0.21875 1.5625-0.54688 2.375-0.98438v2.6875c-0.82422 0.3125-1.6523 0.54688-2.4844 0.70312-0.82422 0.16406-1.6484 0.25-2.4688 0.25-1.9805 0-3.5234-0.5-4.625-1.5-1.0938-1.0078-1.6406-2.4219-1.6406-4.2344 0-1.7891 0.53516-3.1953 1.6094-4.2188 1.082-1.0195 2.5664-1.5312 4.4531-1.5312 1.7188 0 3.0938 0.52344 4.125 1.5625 1.0312 1.0312 1.5469 2.4141 1.5469 4.1406zm-3.5938-1.1562c0-0.66406-0.19531-1.2031-0.57812-1.6094-0.38672-0.40625-0.89062-0.60938-1.5156-0.60938-0.67969 0-1.2305 0.19531-1.6562 0.57812-0.41797 0.375-0.67969 0.92188-0.78125 1.6406z"/>
  </symbol>
  <symbol id="f" overflow="visible">
   <path d="m6.5781-4.9219c-0.73047 0-1.2773 0.125-1.6406 0.375-0.36719 0.24219-0.54688 0.60547-0.54688 1.0938 0 0.4375 0.14453 0.78125 0.4375 1.0312 0.30078 0.25 0.71094 0.375 1.2344 0.375 0.65625 0 1.207-0.23438 1.6562-0.70312 0.45703-0.46875 0.6875-1.0547 0.6875-1.7656v-0.40625zm5.3438-1.3125v6.2344h-3.5156v-1.625c-0.46875 0.66797-1 1.1523-1.5938 1.4531-0.58594 0.30078-1.2969 0.45312-2.1406 0.45312-1.125 0-2.043-0.32812-2.75-0.98438-0.71094-0.66406-1.0625-1.5234-1.0625-2.5781 0-1.2812 0.4375-2.2188 1.3125-2.8125 0.88281-0.60156 2.2734-0.90625 4.1719-0.90625h2.0625v-0.28125c0-0.55078-0.21875-0.95312-0.65625-1.2031-0.4375-0.25781-1.1211-0.39062-2.0469-0.39062-0.75 0-1.4492 0.078125-2.0938 0.23438-0.64844 0.14844-1.2461 0.36719-1.7969 0.65625v-2.6562c0.75-0.1875 1.5-0.32812 2.25-0.42188 0.75781-0.09375 1.5195-0.14062 2.2812-0.14062 1.9688 0 3.3906 0.39062 4.2656 1.1719 0.875 0.77344 1.3125 2.0391 1.3125 3.7969z"/>
  </symbol>
  <symbol id="b" overflow="visible">
   <path d="m5.5-14.047v3.1094h3.6094v2.5h-3.6094v4.6406c0 0.51172 0.097656 0.85547 0.29688 1.0312 0.20703 0.17969 0.60938 0.26562 1.2031 0.26562h1.7969v2.5h-3c-1.375 0-2.3555-0.28516-2.9375-0.85938-0.57422-0.58203-0.85938-1.5625-0.85938-2.9375v-4.6406h-1.7344v-2.5h1.7344v-3.1094z"/>
  </symbol>
  <symbol id="k" overflow="visible">
   <path d="m9.125-9.3438v-5.8594h3.5156v15.203h-3.5156v-1.5781c-0.48047 0.64844-1.0117 1.1211-1.5938 1.4219-0.58594 0.28906-1.2578 0.4375-2.0156 0.4375-1.3438 0-2.4492-0.53516-3.3125-1.6094-0.86719-1.0703-1.2969-2.4453-1.2969-4.125 0-1.6875 0.42969-3.0664 1.2969-4.1406 0.86328-1.0703 1.9688-1.6094 3.3125-1.6094 0.75781 0 1.4297 0.15234 2.0156 0.45312 0.58203 0.30469 1.1133 0.77344 1.5938 1.4062zm-2.3125 7.0938c0.75 0 1.3203-0.26953 1.7188-0.8125 0.39453-0.55078 0.59375-1.3477 0.59375-2.3906 0-1.0391-0.19922-1.832-0.59375-2.375-0.39844-0.55078-0.96875-0.82812-1.7188-0.82812-0.74219 0-1.3086 0.27734-1.7031 0.82812-0.39844 0.54297-0.59375 1.3359-0.59375 2.375 0 1.043 0.19531 1.8398 0.59375 2.3906 0.39453 0.54297 0.96094 0.8125 1.7031 0.8125z"/>
  </symbol>
  <symbol id="e" overflow="visible">
   <path d="m7.5-2.25c0.75 0 1.3203-0.26953 1.7188-0.8125 0.39453-0.55078 0.59375-1.3477 0.59375-2.3906 0-1.0391-0.19922-1.832-0.59375-2.375-0.39844-0.55078-0.96875-0.82812-1.7188-0.82812s-1.3281 0.27734-1.7344 0.82812c-0.39844 0.54297-0.59375 1.3359-0.59375 2.375 0 1.0312 0.19531 1.8242 0.59375 2.375 0.40625 0.55469 0.98438 0.82812 1.7344 0.82812zm-2.3281-7.0938c0.48828-0.63281 1.0234-1.1016 1.6094-1.4062 0.58203-0.30078 1.2539-0.45312 2.0156-0.45312 1.3516 0 2.4609 0.53906 3.3281 1.6094 0.86328 1.0742 1.2969 2.4531 1.2969 4.1406 0 1.6797-0.43359 3.0547-1.2969 4.125-0.86719 1.0742-1.9766 1.6094-3.3281 1.6094-0.76172 0-1.4336-0.15234-2.0156-0.45312-0.58594-0.30078-1.1211-0.76953-1.6094-1.4062v1.5781h-3.4844v-15.203h3.4844z"/>
  </symbol>
  <symbol id="j" overflow="visible">
   <path d="m0.25-10.938h3.4844l2.9531 7.4219 2.5-7.4219h3.4844l-4.5938 11.969c-0.46094 1.2188-1 2.0664-1.625 2.5469-0.61719 0.48828-1.4219 0.73438-2.4219 0.73438h-2.0312v-2.2969h1.0938c0.59375 0 1.0234-0.09375 1.2969-0.28125 0.26953-0.1875 0.47656-0.52734 0.625-1.0156l0.10938-0.29688z"/>
  </symbol>
  <symbol id="i" overflow="visible">
   <path d="m5.5938-11.734v8.8906h1.3438c1.5391 0 2.7188-0.37891 3.5312-1.1406 0.8125-0.75781 1.2188-1.8672 1.2188-3.3281 0-1.4375-0.40625-2.5312-1.2188-3.2812-0.80469-0.75781-1.9805-1.1406-3.5312-1.1406zm-3.75-2.8438h3.9531c2.2188 0 3.8672 0.15625 4.9531 0.46875 1.082 0.3125 2.0078 0.85156 2.7812 1.6094 0.6875 0.65625 1.1953 1.418 1.5312 2.2812 0.33203 0.85547 0.5 1.8242 0.5 2.9062 0 1.1055-0.16797 2.0898-0.5 2.9531-0.33594 0.86719-0.84375 1.625-1.5312 2.2812-0.78125 0.75-1.7188 1.2891-2.8125 1.6094-1.0938 0.3125-2.7344 0.46875-4.9219 0.46875h-3.9531z"/>
  </symbol>
  <symbol id="u" overflow="visible">
   <path d="m1.6875-10.938h3.4844v10.938h-3.4844zm0-4.2656h3.4844v2.8594h-3.4844z"/>
  </symbol>
  <symbol id="h" overflow="visible">
   <path d="m12.672-6.6562v6.6562h-3.5156v-5.0938c0-0.94531-0.023438-1.5977-0.0625-1.9531-0.042969-0.36328-0.11719-0.62891-0.21875-0.79688-0.13672-0.22656-0.32422-0.40625-0.5625-0.53125-0.23047-0.125-0.49609-0.1875-0.79688-0.1875-0.73047 0-1.3047 0.28125-1.7188 0.84375-0.41797 0.5625-0.625 1.3438-0.625 2.3438v5.375h-3.4844v-10.938h3.4844v1.5938c0.53125-0.63281 1.0938-1.1016 1.6875-1.4062 0.59375-0.30078 1.2422-0.45312 1.9531-0.45312 1.2695 0 2.2266 0.39062 2.875 1.1719 0.65625 0.77344 0.98438 1.8984 0.98438 3.375z"/>
  </symbol>
  <symbol id="a" overflow="visible">
   <path d="m6.8906-8.7031c-0.78125 0-1.375 0.28125-1.7812 0.84375-0.40625 0.55469-0.60938 1.3555-0.60938 2.4062 0 1.043 0.20312 1.8438 0.60938 2.4062 0.40625 0.55469 1 0.82812 1.7812 0.82812 0.75781 0 1.3359-0.27344 1.7344-0.82812 0.40625-0.5625 0.60938-1.3633 0.60938-2.4062 0-1.0508-0.20312-1.8516-0.60938-2.4062-0.39844-0.5625-0.97656-0.84375-1.7344-0.84375zm0-2.5c1.875 0 3.3359 0.51172 4.3906 1.5312 1.0625 1.0117 1.5938 2.418 1.5938 4.2188 0 1.793-0.53125 3.1992-1.5938 4.2188-1.0547 1.0117-2.5156 1.5156-4.3906 1.5156-1.8984 0-3.375-0.50391-4.4375-1.5156-1.0625-1.0195-1.5938-2.4258-1.5938-4.2188 0-1.8008 0.53125-3.207 1.5938-4.2188 1.0625-1.0195 2.5391-1.5312 4.4375-1.5312z"/>
  </symbol>
  <symbol id="t" overflow="visible">
   <path d="m10.219-10.594v2.6562c-0.74219-0.3125-1.4609-0.54688-2.1562-0.70312-0.69922-0.15625-1.3594-0.23438-1.9844-0.23438-0.65625 0-1.1484 0.085938-1.4688 0.25-0.32422 0.16797-0.48438 0.42188-0.48438 0.76562 0 0.28125 0.11719 0.49609 0.35938 0.64062 0.25 0.14844 0.6875 0.25781 1.3125 0.32812l0.625 0.09375c1.7891 0.23047 2.9922 0.60547 3.6094 1.125 0.61328 0.52344 0.92188 1.3398 0.92188 2.4531 0 1.168-0.43359 2.043-1.2969 2.625-0.85547 0.58594-2.1328 0.875-3.8281 0.875-0.73047 0-1.4805-0.058594-2.25-0.17188-0.77344-0.11328-1.5625-0.28516-2.375-0.51562v-2.6562c0.69531 0.34375 1.4102 0.60156 2.1406 0.76562 0.72656 0.16797 1.4727 0.25 2.2344 0.25 0.6875 0 1.2031-0.09375 1.5469-0.28125s0.51562-0.46875 0.51562-0.84375c0-0.3125-0.12109-0.53906-0.35938-0.6875-0.24219-0.15625-0.71484-0.27344-1.4219-0.35938l-0.60938-0.078125c-1.5625-0.19531-2.6562-0.55469-3.2812-1.0781-0.625-0.53125-0.9375-1.332-0.9375-2.4062 0-1.1562 0.39453-2.0156 1.1875-2.5781 0.80078-0.5625 2.0195-0.84375 3.6562-0.84375 0.64453 0 1.3203 0.054687 2.0312 0.15625 0.70703 0.09375 1.4766 0.24609 2.3125 0.45312z"/>
  </symbol>
  <symbol id="g" overflow="visible">
   <path d="m8.875-15.203v2.2969h-1.9375c-0.49219 0-0.83594 0.09375-1.0312 0.28125-0.19922 0.17969-0.29688 0.48438-0.29688 0.92188v0.76562h3v2.5h-3v8.4375h-3.4844v-8.4375h-1.75v-2.5h1.75v-0.76562c0-1.1875 0.32812-2.0664 0.98438-2.6406 0.66406-0.57031 1.6953-0.85938 3.0938-0.85938z"/>
  </symbol>
  <symbol id="s" overflow="visible">
   <path d="m1.8438-14.578h3.75v11.734h6.6094v2.8438h-10.359z"/>
  </symbol>
  <symbol id="r" overflow="visible">
   <path d="m11.812-9.125c0.44531-0.67578 0.97266-1.1914 1.5781-1.5469 0.61328-0.35156 1.2852-0.53125 2.0156-0.53125 1.25 0 2.2031 0.39062 2.8594 1.1719 0.66406 0.77344 1 1.8984 1 3.375v6.6562h-3.5156v-5.7031-0.26562c0.007812-0.09375 0.015625-0.22266 0.015625-0.39062 0-0.76953-0.11719-1.3281-0.34375-1.6719-0.23047-0.35156-0.60156-0.53125-1.1094-0.53125-0.65625 0-1.168 0.27734-1.5312 0.82812-0.36719 0.54297-0.55469 1.3281-0.5625 2.3594v5.375h-3.5156v-5.7031c0-1.207-0.10547-1.9844-0.3125-2.3281-0.21094-0.35156-0.57812-0.53125-1.1094-0.53125-0.67969 0-1.1992 0.27734-1.5625 0.82812-0.36719 0.54297-0.54688 1.3281-0.54688 2.3594v5.375h-3.5156v-10.938h3.5156v1.5938c0.4375-0.61328 0.92969-1.0781 1.4844-1.3906 0.55078-0.3125 1.1641-0.46875 1.8438-0.46875 0.75 0 1.4141 0.18359 2 0.54688 0.58203 0.36719 1.0195 0.875 1.3125 1.5312z"/>
  </symbol>
  <symbol id="q" overflow="visible">
   <path d="m12.672-6.6562v6.6562h-3.5156v-5.0781c0-0.95703-0.023438-1.6133-0.0625-1.9688-0.042969-0.36328-0.11719-0.62891-0.21875-0.79688-0.13672-0.22656-0.32422-0.40625-0.5625-0.53125-0.23047-0.125-0.49609-0.1875-0.79688-0.1875-0.73047 0-1.3047 0.28125-1.7188 0.84375-0.41797 0.5625-0.625 1.3438-0.625 2.3438v5.375h-3.4844v-15.203h3.4844v5.8594c0.53125-0.63281 1.0938-1.1016 1.6875-1.4062 0.59375-0.30078 1.2422-0.45312 1.9531-0.45312 1.2695 0 2.2266 0.39062 2.875 1.1719 0.65625 0.77344 0.98438 1.8984 0.98438 3.375z"/>
  </symbol>
  <symbol id="p" overflow="visible">
   <path d="m1.8438-14.578h4.1875l5.3125 10v-10h3.5625v14.578h-4.2031l-5.2969-10v10h-3.5625z"/>
  </symbol>
  <symbol id="o" overflow="visible">
   <path d="m1.5625-4.2656v-6.6719h3.5156v1.0938c0 0.59375-0.007813 1.3398-0.015625 2.2344v1.7812c0 0.88672 0.019531 1.5234 0.0625 1.9062 0.050781 0.38672 0.12891 0.66797 0.23438 0.84375 0.14453 0.23047 0.33203 0.40625 0.5625 0.53125 0.22656 0.125 0.49219 0.1875 0.79688 0.1875 0.72656 0 1.3008-0.28125 1.7188-0.84375 0.41406-0.5625 0.625-1.3359 0.625-2.3281v-5.4062h3.5v10.938h-3.5v-1.5781c-0.53125 0.63672-1.0938 1.1055-1.6875 1.4062-0.58594 0.30078-1.2305 0.45312-1.9375 0.45312-1.2617 0-2.2266-0.38281-2.8906-1.1562-0.65625-0.78125-0.98438-1.9102-0.98438-3.3906z"/>
  </symbol>
  <symbol id="n" overflow="visible">
   <path d="m1.8438-14.578h6.2344c1.8516 0 3.2734 0.41406 4.2656 1.2344 1 0.82422 1.5 1.9961 1.5 3.5156 0 1.5312-0.5 2.7109-1.5 3.5312-0.99219 0.82422-2.4141 1.2344-4.2656 1.2344h-2.4844v5.0625h-3.75zm3.75 2.7188v4.0781h2.0781c0.72656 0 1.2891-0.17578 1.6875-0.53125 0.40625-0.35156 0.60938-0.85938 0.60938-1.5156 0-0.64453-0.20312-1.1445-0.60938-1.5-0.39844-0.35156-0.96094-0.53125-1.6875-0.53125z"/>
  </symbol>
  <symbol id="m" overflow="visible">
   <path d="m1.6875-10.938h3.4844v10.734c0 1.4688-0.35547 2.5859-1.0625 3.3594-0.69922 0.76953-1.7148 1.1562-3.0469 1.1562h-1.7344v-2.2969h0.60938c0.66406 0 1.125-0.15234 1.375-0.45312 0.25-0.29297 0.375-0.88281 0.375-1.7656zm0-4.2656h3.4844v2.8594h-3.4844z"/>
  </symbol>
  <symbol id="l" overflow="visible">
   <path d="m10.516-10.594v2.8438c-0.46875-0.32031-0.94531-0.5625-1.4219-0.71875-0.48047-0.15625-0.98047-0.23438-1.5-0.23438-0.96875 0-1.7305 0.28906-2.2812 0.85938-0.54297 0.5625-0.8125 1.3594-0.8125 2.3906 0 1.0234 0.26953 1.8203 0.8125 2.3906 0.55078 0.5625 1.3125 0.84375 2.2812 0.84375 0.55078 0 1.0703-0.078125 1.5625-0.23438 0.48828-0.16406 0.94141-0.41016 1.3594-0.73438v2.8594c-0.54297 0.21094-1.0938 0.35938-1.6562 0.45312-0.5625 0.10156-1.1328 0.15625-1.7031 0.15625-1.9688 0-3.5117-0.50391-4.625-1.5156-1.1172-1.0078-1.6719-2.4141-1.6719-4.2188 0-1.8125 0.55469-3.2227 1.6719-4.2344 1.1133-1.0078 2.6562-1.5156 4.625-1.5156 0.57031 0 1.1328 0.054687 1.6875 0.15625 0.5625 0.09375 1.1172 0.24609 1.6719 0.45312z"/>
  </symbol>
 </defs>
 <g>
  <path d="m454.88 540h-340.88c-13.234 0-24-10.719-24-23.891v-405.26c0-13.172 10.766-23.887 24-23.887h80.719c2.2109 0 4 1.7891 4 4 0 2.2109-1.7891 4-4 4h-80.719c-8.8242 0-16 7.125-16 15.887v405.26c0 8.7617 7.1758 15.891 16 15.891h340.88c8.8242 0 16-7.1289 16-15.891v-405.26c0-8.7617-7.1758-15.887-16-15.887h-80.719c-2.2109 0-4-1.7891-4-4 0-2.2109 1.7891-4 4-4h80.719c13.234 0 24 10.715 24 23.887v405.26c0 13.172-10.766 23.891-24 23.891z"/>
  <path d="m363.1 130.76h-157.32c-1.7539 0-3.3047-1.1445-3.8242-2.8203l-15.398-49.949c-0.58594-1.9102 0.32031-3.957 2.1328-4.8047 13.863-6.4766 45.133-19.469 62.504-23.727 1.6367-16.516 15.676-29.461 32.699-29.461h1.0977c17.023 0 31.062 12.945 32.699 29.461 17.371 4.2578 48.641 17.25 62.504 23.727 1.8086 0.84766 2.7188 2.8945 2.1328 4.8047l-15.398 49.949c-0.51953 1.6758-2.0703 2.8203-3.8242 2.8203zm-154.37-8h151.42l13.496-43.781c-17.52-7.9492-47.02-19.637-60.586-22.359-1.8672-0.375-3.2109-2.0156-3.2109-3.9219 0-13.621-11.152-24.699-24.859-24.699h-1.0977c-13.707 0-24.859 11.078-24.859 24.699 0 1.9062-1.3438 3.5469-3.2109 3.9219-13.57 2.7266-43.07 14.41-60.586 22.359zm109.12-70.062h0.039063z"/>
  <path d="m284.44 69.602c-8.8242 0-16-7.1484-16-15.934 0-8.7852 7.1758-15.934 16-15.934 8.8242 0 16 7.1484 16 15.934 0 8.7852-7.1758 15.934-16 15.934zm0-23.867c-4.4102 0-8 3.5586-8 7.9336s3.5898 7.9336 8 7.9336 8-3.5586 8-7.9336-3.5898-7.9336-8-7.9336z"/>
  <path d="m383.36 516.13h-265.36c-2.2109 0-4-1.7891-4-4v-397.3c0-2.2109 1.7891-4 4-4h84.078c2.2109 0 4 1.7891 4 4s-1.7891 4-4 4h-80.078v389.3h259.71l65.168-64.809v-324.5h-80.078c-2.2109 0-4-1.7891-4-4s1.7891-4 4-4h84.078c2.2109 0 4 1.7891 4 4v330.16c0 1.0664-0.42578 2.0859-1.1797 2.8359l-67.52 67.145c-0.75 0.74609-1.7617 1.1641-2.8203 1.1641z"/>
  <path d="m383.36 516.13c-0.51953 0-1.0391-0.10156-1.5352-0.30469-1.4922-0.62109-2.4648-2.0781-2.4648-3.6953v-67.145c0-2.2109 1.7891-4 4-4h67.52c1.6211 0 3.0781 0.97656 3.6992 2.4727 0.61719 1.5 0.26953 3.2227-0.87891 4.3633l-67.52 67.145c-0.76563 0.76172-1.7852 1.1641-2.8203 1.1641zm4-67.145v53.527l53.824-53.527z"/>
  <path d="m606 464.48h-75.121c-2.2109 0-4-1.7891-4-4v-260.39c0-22.801 18.645-41.352 41.562-41.352 22.914 0 41.559 18.551 41.559 41.352v260.39c0 2.2109-1.7891 4-4 4zm-71.121-8h67.121v-256.39c0-18.391-15.055-33.352-33.559-33.352-18.508 0-33.562 14.961-33.562 33.352z"/>
  <path d="m568.44 540c-1.5195 0-2.9062-0.85938-3.582-2.2188l-37.562-75.516c-0.61719-1.2383-0.54688-2.7109 0.17969-3.8867 0.73047-1.1797 2.0156-1.8945 3.4023-1.8945h75.121c1.3867 0 2.6719 0.71484 3.3984 1.8945 0.73047 1.1758 0.80078 2.6484 0.18359 3.8867l-37.559 75.516c-0.67578 1.3594-2.0625 2.2188-3.582 2.2188zm-31.105-75.516 31.105 62.535 31.102-62.535z"/>
  <path d="m606 226.04h-75.121c-2.2109 0-4-1.7891-4-4 0-2.2109 1.7891-4 4-4h75.121c2.2109 0 4 1.7891 4 4 0 2.2109-1.7891 4-4 4z"/>
  <path d="m568.44 464.48c-2.2109 0-4-1.7891-4-4v-238.45c0-2.2109 1.7891-4 4-4 2.2109 0 4 1.7891 4 4v238.45c0 2.2109-1.7891 4-4 4z"/>
  <path d="m583.04 510.63h-29.191c-2.2109 0-4-1.7891-4-4 0-2.2109 1.7891-4 4-4h29.191c2.2109 0 4 1.7891 4 4 0 2.2109-1.7891 4-4 4z"/>
  <path d="m200.62 232.95h-53.59c-2.2109 0-4-1.7891-4-4v-58.215c0-2.2109 1.7891-4 4-4h53.59c2.2109 0 4 1.7891 4 4v58.215c0 2.2109-1.7891 4-4 4zm-49.59-8h45.59v-50.215h-45.59z"/>
  <path d="m421.85 180.54h-194.24c-2.2109 0-4-1.7891-4-4 0-2.2109 1.7891-4 4-4h194.24c2.2109 0 4 1.7891 4 4 0 2.2109-1.7891 4-4 4z"/>
  <path d="m421.85 226.04h-194.24c-2.2109 0-4-1.7891-4-4 0-2.2109 1.7891-4 4-4h194.24c2.2109 0 4 1.7891 4 4 0 2.2109-1.7891 4-4 4z"/>
  <path d="m200.62 351.93h-53.59c-2.2109 0-4-1.7891-4-4v-58.215c0-2.2109 1.7891-4 4-4h53.59c2.2109 0 4 1.7891 4 4v58.215c0 2.2109-1.7891 4-4 4zm-49.59-8h45.59v-50.215h-45.59z"/>
  <path d="m421.85 299.52h-194.24c-2.2109 0-4-1.7891-4-4s1.7891-4 4-4h194.24c2.2109 0 4 1.7891 4 4s-1.7891 4-4 4z"/>
  <path d="m421.85 345.02h-194.24c-2.2109 0-4-1.7891-4-4s1.7891-4 4-4h194.24c2.2109 0 4 1.7891 4 4s-1.7891 4-4 4z"/>
  <path d="m200.62 470.91h-53.59c-2.2109 0-4-1.7891-4-4v-58.219c0-2.2109 1.7891-4 4-4h53.59c2.2109 0 4 1.7891 4 4v58.219c0 2.2109-1.7891 4-4 4zm-49.59-8h45.59v-50.219h-45.59z"/>
  <path d="m421.85 418.49h-194.24c-2.2109 0-4-1.7891-4-4 0-2.2109 1.7891-4 4-4h194.24c2.2109 0 4 1.7891 4 4 0 2.2109-1.7891 4-4 4z"/>
  <path d="m357.85 463.99h-130.24c-2.2109 0-4-1.7891-4-4 0-2.2109 1.7891-4 4-4h130.24c2.2109 0 4 1.7891 4 4 0 2.2109-1.7891 4-4 4z"/>
  
 </g>
</svg>
